# xmcd CD database file
# Copyright (C) 1996 Ti Kan
#
# Track frame offsets:
# 	150
# 	16422
# 	31057
# 	42795
# 	58927
# 	76167
# 	86912
# 	101375
# 	116475
# 	130985
#
# Disc length: 2042 seconds
#
# Revision: 1
# Processed by: cddbd v1.4b41PL1 Copyright (c) Steve Scherf et al.
# Submitted via: DiscPlay 3.4.1
#
DISCID=7607f80a
DTITLE=Lacy J. Dalton - The Best of Lacy J. Dalton
DYEAR=1900
DGENRE=
TTITLE0=Black Coffee
TTITLE1=Where Did We Go Right
TTITLE2=Love Hurts
TTITLE3=Lonesome (As the Night Is Long)
TTITLE4=The Deal
TTITLE5=Bye Bye, Love
TTITLE6=I'm A Survivor
TTITLE7=Turn To The One
TTITLE8=Crazy Love
TTITLE9=Hard Luck Ace
EXTD=
EXTT0=
EXTT1=
EXTT2=
EXTT3=
EXTT4=
EXTT5=
EXTT6=
EXTT7=
EXTT8=
EXTT9=
PLAYORDER=
